<svg width="22" height="20" viewBox="0 0 22 20" fill="none" xmlns="http://www.w3.org/2000/svg">
<mask id="path-1-inside-1_95_13" fill="white">
<path d="M16.237 2.05975C16.497 1.5725 16.3143 0.961631 15.8035 0.751569C14.5368 0.230615 13.173 -0.0259406 11.7965 0.00206983C10.0859 0.0368812 8.41272 0.510054 6.93717 1.37633C5.46162 2.2426 4.23303 3.47299 3.36892 4.94981C2.50481 6.42662 2.03409 8.10046 2.00178 9.81119C1.96948 11.5219 2.37667 13.2123 3.18441 14.7207C3.99214 16.2291 5.17341 17.505 6.6152 18.4264C8.05699 19.3477 9.71107 19.8837 11.4192 19.9831C12.7937 20.0631 14.1661 19.8582 15.4516 19.3854C15.97 19.1948 16.1757 18.5913 15.9342 18.0946L15.2929 16.775C15.0515 16.2783 14.4542 16.0795 13.9265 16.2424C13.1833 16.4717 12.4024 16.5673 11.6206 16.5218C10.5047 16.4569 9.42408 16.1068 8.48218 15.5048C7.54028 14.9029 6.76858 14.0694 6.24089 13.084C5.71321 12.0986 5.4472 10.9943 5.4683 9.87666C5.48941 8.75905 5.79692 7.66556 6.36143 6.70078C6.92595 5.736 7.72857 4.9322 8.69252 4.36627C9.65648 3.80035 10.7495 3.49123 11.8671 3.46849C12.6501 3.45256 13.4267 3.57757 14.1608 3.83482C14.682 4.01749 15.2863 3.84139 15.5463 3.35413L16.237 2.05975Z"/>
</mask>
<path d="M16.237 2.05975C16.497 1.5725 16.3143 0.961631 15.8035 0.751569C14.5368 0.230615 13.173 -0.0259406 11.7965 0.00206983C10.0859 0.0368812 8.41272 0.510054 6.93717 1.37633C5.46162 2.2426 4.23303 3.47299 3.36892 4.94981C2.50481 6.42662 2.03409 8.10046 2.00178 9.81119C1.96948 11.5219 2.37667 13.2123 3.18441 14.7207C3.99214 16.2291 5.17341 17.505 6.6152 18.4264C8.05699 19.3477 9.71107 19.8837 11.4192 19.9831C12.7937 20.0631 14.1661 19.8582 15.4516 19.3854C15.97 19.1948 16.1757 18.5913 15.9342 18.0946L15.2929 16.775C15.0515 16.2783 14.4542 16.0795 13.9265 16.2424C13.1833 16.4717 12.4024 16.5673 11.6206 16.5218C10.5047 16.4569 9.42408 16.1068 8.48218 15.5048C7.54028 14.9029 6.76858 14.0694 6.24089 13.084C5.71321 12.0986 5.4472 10.9943 5.4683 9.87666C5.48941 8.75905 5.79692 7.66556 6.36143 6.70078C6.92595 5.736 7.72857 4.9322 8.69252 4.36627C9.65648 3.80035 10.7495 3.49123 11.8671 3.46849C12.6501 3.45256 13.4267 3.57757 14.1608 3.83482C14.682 4.01749 15.2863 3.84139 15.5463 3.35413L16.237 2.05975Z" fill="#719DF5" stroke="#719DF5" stroke-width="4" mask="url(#path-1-inside-1_95_13)"/>
<line x1="1.5" y1="6.5" x2="12.5" y2="6.5" stroke="#719DF5" stroke-width="3" stroke-linecap="round"/>
<line x1="1.5" y1="11.5" x2="12.5" y2="11.5" stroke="#719DF5" stroke-width="3" stroke-linecap="round"/>
</svg>
